<svg width="24" height="24" viewBox="0 0 24 24" fill="none" xmlns="http://www.w3.org/2000/svg">
<path d="M16.575 3.7592C16.8157 3.51851 17.1014 3.32757 17.4159 3.19731C17.7304 3.06705 18.0675 3 18.4079 3C18.7482 3 19.0853 3.06705 19.3998 3.19731C19.7143 3.32757 20 3.51851 20.2407 3.7592C20.4814 3.9999 20.6724 4.28565 20.8026 4.60014C20.9329 4.91462 20.9999 5.25169 20.9999 5.59208C20.9999 5.93248 20.9329 6.26955 20.8026 6.58403C20.6724 6.89852 20.4814 7.18427 20.2407 7.42496L7.86879 19.7969L2.82837 21.1716L4.20303 16.1311L16.575 3.7592Z" stroke="#242B34" stroke-width="2" stroke-linecap="round" stroke-linejoin="round"/>
<path d="M15.6586 5.5921L19.3243 9.25786" stroke="#242B34" stroke-width="2"/>
</svg>
