<svg width="24" height="24" viewBox="0 0 24 24" fill="none" xmlns="http://www.w3.org/2000/svg">
<path d="M3.8999 6.59998H5.6999H20.0999" stroke="#FF1733" stroke-width="2" stroke-linecap="round" stroke-linejoin="round"/>
<path d="M18.3002 6.6V19.2C18.3002 19.6774 18.1106 20.1352 17.773 20.4728C17.4354 20.8104 16.9776 21 16.5002 21H7.5002C7.02281 21 6.56497 20.8104 6.2274 20.4728C5.88984 20.1352 5.7002 19.6774 5.7002 19.2V6.6M8.4002 6.6V4.8C8.4002 4.32261 8.58984 3.86477 8.9274 3.52721C9.26497 3.18964 9.72281 3 10.2002 3H13.8002C14.2776 3 14.7354 3.18964 15.073 3.52721C15.4106 3.86477 15.6002 4.32261 15.6002 4.8V6.6" stroke="#FF1733" stroke-width="2" stroke-linecap="round" stroke-linejoin="round"/>
</svg>
